<?xml version="1.0" encoding="utf-8"?>
<!-- Generator: Adobe Illustrator 16.0.0, SVG Export Plug-In . SVG Version: 6.00 Build 0)  -->
<!DOCTYPE svg PUBLIC "-//W3C//DTD SVG 1.0//EN" "http://www.w3.org/TR/2001/REC-SVG-20010904/DTD/svg10.dtd">
<svg version="1.0" id="Layer_1" xmlns="http://www.w3.org/2000/svg" xmlns:xlink="http://www.w3.org/1999/xlink" x="0px" y="0px"
	 width="50px" height="50px" viewBox="0 0 50 50" enable-background="new 0 0 50 50" xml:space="preserve">
<path fill="#010101" d="M57.662,22.348c0-1.718-2.294-3.299-6.118-4.576C49.548,5.171,39.359-2.52,27.056-2.52
	S4.562,5.171,2.567,17.773c-3.825,1.277-6.118,2.857-6.118,4.575c0,3.023,7.028,5.629,17.205,6.871l-6.661,6.663
	c-0.314-0.085-0.638-0.143-0.979-0.143c-2.111,0-3.826,1.711-3.826,3.826c0,2.11,1.715,3.825,3.826,3.825
	c0.34,0,0.665-0.06,0.979-0.144l8.587,8.587v6.859h3.825v-5.738h5.739V49.13h-6.861l-8.586-8.587
	c0.083-0.313,0.142-0.638,0.142-0.978c0-0.342-0.059-0.666-0.142-0.979l8.889-8.891C21.278,29.89,24.114,30,27.056,30
	c2.94,0,5.776-0.11,8.468-0.305l6.978,6.978c-0.085,0.314-0.142,0.64-0.142,0.979s0.057,0.663,0.142,0.978l-4.76,4.761h-6.859v3.825
	h5.739v5.739h3.824v-6.864l4.76-4.755c0.314,0.082,0.64,0.141,0.979,0.141c2.116,0,3.827-1.714,3.827-3.824
	c0-2.114-1.711-3.827-3.827-3.827c-0.34,0-0.665,0.059-0.979,0.144l-4.747-4.75C50.634,27.977,57.662,25.371,57.662,22.348z
	 M28.184,13.655c0.008-2.72,2.168-4.926,4.847-4.927c0.09,0,0.174,0.037,0.239,0.099c0.062,0.063,0.097,0.151,0.097,0.24
	c-0.004,2.717-2.159,4.925-4.843,4.925c-0.088,0-0.174-0.034-0.238-0.098C28.222,13.831,28.184,13.745,28.184,13.655z
	 M27.542,13.854c-0.063,0.064-0.149,0.1-0.235,0.1c-2.721-0.005-4.921-2.164-4.921-4.85c0-0.09,0.034-0.176,0.098-0.24
	c0.063-0.061,0.149-0.098,0.238-0.098c2.716,0.004,4.917,2.165,4.921,4.849C27.643,13.705,27.604,13.789,27.542,13.854z
	 M27.056-0.606c11.702,0,20.329,7.09,22.435,17.762c-4.415-1.192-10.314-2.031-16.983-2.332c0.973-1.497,1.654-3.21,1.654-4.673
	c0-3.478-2.812-6.294-6.283-6.294c-3.471,0-6.287,2.817-6.287,6.294c0,1.444,0.666,3.13,1.617,4.612
	c-7.319,0.23-13.818,1.106-18.586,2.393C6.731,6.483,15.354-0.606,27.056-0.606z"/>
</svg>
